<svg width="121" height="45" fill="none" xmlns="http://www.w3.org/2000/svg"><path d="m80.67 4.547-1.417-1.474a.962.962 0 0 1 0-1.325L80.67.275a.878.878 0 0 1 1.276 0l1.417 1.473a.963.963 0 0 1 0 1.325l-1.418 1.474a.877.877 0 0 1-1.274 0z" fill="#32BCAD"/><path fill-rule="evenodd" clip-rule="evenodd" d="M104.812 16.287a1.61 1.61 0 0 1-2.339 0l-7.252-7.54a6.637 6.637 0 0 0-4.784-2.06h-3.1c-.416 0-.752.35-.752.78 0 .432.336.782.752.782h3.1c1.396 0 2.734.577 3.722 1.603l7.252 7.54a3.07 3.07 0 0 0 4.464 0l7.227-7.512a5.158 5.158 0 0 1 3.72-1.603h2.521c.415 0 .752-.35.752-.781 0-.432-.337-.782-.752-.782h-2.521a6.638 6.638 0 0 0-4.784 2.06l-7.226 7.513zm-22.72 13.628c0 .432-.337.782-.752.782-.416 0-.752-.35-.752-.782v-18.96c0-1.485-1.158-2.69-2.586-2.69h-3.126c-.416 0-.752-.35-.752-.78 0-.433.336-.782.752-.782h3.126c2.258 0 4.09 1.903 4.09 4.252v18.96zm-31.923 11.41c0 .431-.337.781-.752.781-.416 0-.752-.35-.752-.781V15.943c0-5.102 3.978-9.238 8.885-9.238l7.208.011c4.893.01 8.855 4.138 8.855 9.226v5.402c0 5.102-3.978 9.238-8.885 9.238H54.544c-.415 0-.752-.35-.752-.782 0-.431.337-.781.752-.781h10.184c4.077 0 7.381-3.436 7.381-7.675v-5.403c0-4.225-3.29-7.653-7.354-7.662l-7.205-.01h-.002c-4.076 0-7.38 3.436-7.38 7.674v25.382zm37.168-10.796c-.416 0-.752-.35-.752-.782 0-.431.336-.781.752-.781h3.1a5.164 5.164 0 0 0 3.722-1.603l7.252-7.54a3.071 3.071 0 0 1 4.464 0l7.227 7.512a5.158 5.158 0 0 0 3.72 1.603h2.521c.415 0 .752.35.752.782 0 .431-.337.781-.752.781h-2.521a6.638 6.638 0 0 1-4.784-2.06l-7.226-7.513a1.61 1.61 0 0 0-2.339 0l-7.252 7.54a6.637 6.637 0 0 1-4.784 2.061h-3.1z" fill="#939598"/><path fill-rule="evenodd" clip-rule="evenodd" d="M9.209 12.687c1.556 0 3.02.63 4.12 1.774l5.97 6.209c.43.447 1.133.449 1.564 0l5.949-6.187c1.1-1.144 2.564-1.774 4.12-1.774h.717l-7.556-7.856a5.864 5.864 0 0 0-8.522 0l-7.534 7.834h1.172zm21.723 21.879c-1.556 0-3.02-.63-4.12-1.774l-5.949-6.185a1.1 1.1 0 0 0-1.563 0l-5.97 6.208c-1.101 1.144-2.565 1.774-4.121 1.774H8.037l7.534 7.834a5.864 5.864 0 0 0 8.522 0l7.556-7.857h-.717zm2.4-20.106 4.567 4.748c2.353 2.446 2.353 6.413 0 8.86l-4.566 4.747a.842.842 0 0 0-.325-.067h-2.076a4.024 4.024 0 0 1-2.882-1.242L22.1 25.32c-1.078-1.123-2.959-1.122-4.038 0l-5.97 6.207a4.026 4.026 0 0 1-2.883 1.242H6.656a.843.843 0 0 0-.307.064l-4.584-4.766c-2.353-2.447-2.353-6.414 0-8.86l4.584-4.767a.838.838 0 0 0 .307.064h2.553c1.073 0 2.124.453 2.882 1.242l5.972 6.209a2.793 2.793 0 0 0 2.019.868c.73 0 1.462-.29 2.018-.869l5.95-6.186a4.025 4.025 0 0 1 2.882-1.241h2.076a.839.839 0 0 0 .324-.068z" fill="#32BCAD"/></svg>