<svg width="31" height="23" xmlns="http://www.w3.org/2000/svg"><g fill="none" fill-rule="evenodd"><path d="M30.32 17.586V1.373a.731.731 0 0 0-.726-.737c-.4 0-.726.33-.726.737v16.213c0 .407.325.737.726.737.4 0 .726-.33.726-.737zM26.057.636a.732.732 0 0 0-.726.737v12.725c0 .407.325.737.726.737.4 0 .725-.33.725-.737V1.373a.731.731 0 0 0-.725-.737zm-3.537 0a.732.732 0 0 0-.726.737v12.725c0 .407.325.737.725.737.401 0 .726-.33.726-.737V1.373a.731.731 0 0 0-.726-.737zm-3.538 0c-.4 0-.726.33-.726.737v12.725c0 .407.325.737.726.737.4 0 .726-.33.726-.737V1.373a.731.731 0 0 0-.726-.737zm-3.538 0c-.4 0-.725.33-.725.737v12.725c0 .407.325.737.725.737.401 0 .726-.33.726-.737V1.373a.731.731 0 0 0-.726-.737zm-3.537 0c-.4 0-.726.33-.726.737v12.725c0 .407.325.737.726.737.4 0 .726-.33.726-.737V1.373a.731.731 0 0 0-.726-.737zm-3.537 0a.732.732 0 0 0-.726.737v12.725c0 .407.325.737.726.737.4 0 .725-.33.725-.737V1.373A.731.731 0 0 0 8.37.636zm-3.538 0c-.4 0-.725.33-.725.737v12.725a.73.73 0 0 0 .725.737c.401 0 .726-.33.726-.737V1.373a.731.731 0 0 0-.726-.737zM2.02 17.586V1.373a.731.731 0 0 0-.725-.737.732.732 0 0 0-.726.737v16.213c0 .407.325.737.726.737.4 0 .725-.33.725-.737z" fill-rule="nonzero" fill="#212121"/><path d="M5.384 18.837h1.52c.432 0 .743-.076.932-.228.19-.152.284-.38.284-.684 0-.202-.032-.362-.096-.48a.682.682 0 0 0-.264-.272 1.038 1.038 0 0 0-.388-.124 3.711 3.711 0 0 0-.468-.028h-1.52v1.816zm-.76-2.456h2.072c.123 0 .255.002.396.004.141.003.281.011.42.024.139.014.268.034.388.06a.99.99 0 0 1 .308.12c.187.112.345.267.476.464.13.198.196.44.196.728 0 .304-.073.567-.22.788a1.297 1.297 0 0 1-.628.492v.016c.352.075.621.235.808.48.187.246.28.544.28.896 0 .208-.037.411-.112.608a1.524 1.524 0 0 1-.332.524 1.66 1.66 0 0 1-.544.368c-.216.094-.465.14-.748.14h-2.76v-5.712zm.76 5.072h1.904c.336 0 .599-.09.788-.272.19-.181.284-.432.284-.752a.933.933 0 0 0-.104-.464.807.807 0 0 0-.276-.292 1.156 1.156 0 0 0-.396-.152 2.402 2.402 0 0 0-.464-.044H5.384v1.976zm5.104-1.424c0 .251.033.474.1.668.067.195.159.358.276.488a1.198 1.198 0 0 0 .912.404 1.198 1.198 0 0 0 .912-.404c.117-.13.21-.293.276-.488.067-.194.1-.417.1-.668 0-.25-.033-.473-.1-.668a1.442 1.442 0 0 0-.276-.492 1.175 1.175 0 0 0-.412-.304 1.226 1.226 0 0 0-.5-.104 1.188 1.188 0 0 0-.912.408c-.117.134-.21.298-.276.492-.067.195-.1.418-.1.668zm-.72 0c0-.304.043-.588.128-.852a1.93 1.93 0 0 1 .384-.688c.17-.194.381-.348.632-.46.25-.112.539-.168.864-.168.33 0 .62.056.868.168a1.83 1.83 0 0 1 1.012 1.148c.085.264.128.548.128.852 0 .304-.043.587-.128.848-.085.262-.213.49-.384.684a1.76 1.76 0 0 1-.628.456c-.248.11-.537.164-.868.164-.325 0-.613-.054-.864-.164a1.767 1.767 0 0 1-.632-.456 1.936 1.936 0 0 1-.384-.684 2.717 2.717 0 0 1-.128-.848zm4.856-3.648v5.712h.68v-5.712h-.68zm4.608 3.248a1.391 1.391 0 0 0-.108-.456 1.165 1.165 0 0 0-.616-.62 1.163 1.163 0 0 0-.468-.092c-.176 0-.335.031-.476.092a1.1 1.1 0 0 0-.364.252 1.226 1.226 0 0 0-.24.372 1.416 1.416 0 0 0-.104.452h2.376zm.656 1.152c-.09.464-.29.814-.6 1.048-.31.235-.699.352-1.168.352-.33 0-.617-.053-.86-.16a1.695 1.695 0 0 1-.612-.448 1.903 1.903 0 0 1-.372-.688 3.315 3.315 0 0 1-.14-.872c0-.314.048-.602.144-.864.096-.261.23-.488.404-.68a1.833 1.833 0 0 1 1.396-.608c.368 0 .673.076.916.228.243.152.437.346.584.58.147.235.248.491.304.768.056.278.079.542.068.792h-3.096c-.005.182.016.354.064.516a1.145 1.145 0 0 0 .64.732c.165.075.36.112.584.112.288 0 .524-.066.708-.2.184-.133.305-.336.364-.608h.672zm1.712-2.824v-1.24h-.68v1.24h-.704v.6h.704v2.632c0 .192.019.347.056.464a.564.564 0 0 0 .172.272.664.664 0 0 0 .304.132c.125.024.276.036.452.036h.52v-.6h-.312c-.107 0-.193-.004-.26-.012a.336.336 0 0 1-.156-.052.198.198 0 0 1-.076-.112.742.742 0 0 1-.02-.192v-2.568h.824v-.6H21.6zm2.072 2.072c0 .251.033.474.1.668.067.195.159.358.276.488a1.198 1.198 0 0 0 .912.404 1.198 1.198 0 0 0 .912-.404c.117-.13.21-.293.276-.488.067-.194.1-.417.1-.668 0-.25-.033-.473-.1-.668a1.442 1.442 0 0 0-.276-.492 1.175 1.175 0 0 0-.412-.304 1.226 1.226 0 0 0-.5-.104 1.188 1.188 0 0 0-.912.408c-.117.134-.21.298-.276.492-.067.195-.1.418-.1.668zm-.72 0c0-.304.043-.588.128-.852a1.93 1.93 0 0 1 .384-.688c.17-.194.381-.348.632-.46.25-.112.539-.168.864-.168.33 0 .62.056.868.168a1.83 1.83 0 0 1 1.012 1.148c.085.264.128.548.128.852 0 .304-.043.587-.128.848-.085.262-.213.49-.384.684a1.76 1.76 0 0 1-.628.456c-.248.11-.537.164-.868.164-.325 0-.613-.054-.864-.164a1.767 1.767 0 0 1-.632-.456 1.936 1.936 0 0 1-.384-.684 2.717 2.717 0 0 1-.128-.848z" fill="#252525"/></g></svg>