<svg xmlns="http://www.w3.org/2000/svg" height="208" width="300"><path d="m126.039 137.492 13.958-65.225h-16.89l-13.925 65.225zm103.706 0h15.591l-13.592-65.225h-14.392c-3.231 0-5.963 1.867-7.162 4.766l-25.285 60.426h17.69l3.53-9.732h21.621zm-18.822-23.097 8.895-24.497 5.097 24.497zm-25.186 1.8c.067-17.231-23.786-18.164-23.62-25.863.067-2.367 2.266-4.833 7.163-5.466 2.432-.3 9.062-.567 16.624 2.933l2.965-13.832c-4.031-1.466-9.295-2.9-15.758-2.9-16.657 0-28.383 8.866-28.483 21.564-.1 9.366 8.362 14.632 14.758 17.731 6.563 3.2 8.762 5.233 8.762 8.1-.067 4.365-5.264 6.299-10.095 6.365-8.461.133-13.392-2.266-17.323-4.1l-3.065 14.299c3.931 1.8 11.227 3.366 18.756 3.466 17.656.033 29.25-8.732 29.316-22.297m-69.86-43.928H98.156l-17.557 44.395-7.096-37.729c-.832-4.233-4.097-6.666-7.762-6.666H37.057l-.4 1.867c5.897 1.3 12.593 3.366 16.624 5.566 2.465 1.366 3.165 2.533 3.998 5.732l13.458 52.06H88.56l27.318-65.225M14.353 0H285.65a14.321 14.321 0 0 1 14.353 14.353v179.293a14.321 14.321 0 0 1-14.353 14.352H14.353A14.321 14.321 0 0 1 .001 193.646V14.353A14.321 14.321 0 0 1 14.353 0z" fill="#101974"/></svg>