<svg xmlns="http://www.w3.org/2000/svg" height="208" width="300"><path d="M14.353 0h271.29a14.322 14.322 0 0 1 14.353 14.353v179.29a14.322 14.322 0 0 1-14.353 14.353H14.353c-7.949 0-14.35-6.4-14.35-14.4V14.306A14.32 14.32 0 0 1 14.356-.044z" fill="#00a1d3"/><path fill="#fff" d="m83.75 72.27-26.271.266-27.094 63.016 29.477-.621 4.178-9.84 14.34.054 3.918 10.291c10.658.121 21.309.184 31.957.221v-17.035l9.535 17.051c4.795.008 9.59.027 14.385.024l9.17-16.246v16.229c26.96-.054 53.917-.24 80.914-.356l9.65-10.475 10.156 10.881c7.185-.057 14.367-.189 21.551-.309l-.217-17.564-13.604-13.506 13.568-11.938-.058-20.13-6.13.16-11.708.25-6.05-.14-7.647 11.272-8.823-11.344-8.963-.152-39.914.246-39.914-.03-8.31 14.035-9.621-14.045H90.697l.101 9.868zm-21.01 8.27h16.766l19.191 44.51V80.54h18.418l14.768 31.892 13.566-31.893h18.787v47.012H152.67l-.043-36.818-16.363 36.818h-9.906L109.954 90.7v36.852H87l-4.336-10.486H59.169l-4.379 10.486H42.534zm109.84 0h37.697v9.79h-26.412v8.473h25.777v9.637h-25.777v9.389h26.412v9.722H172.58zm41.639.228H224.5l13.387 15.348 13.387-15.348h10.283v5.018l-16.143 18.578 16.143 18.582v5.017h-10.283l-13.387-15.348-13.387 15.348h-10.28v-5.017l16.143-18.582-16.143-18.578v-.305zm-143.13 7.799-7.68 18.742h15.404z"/></svg>