<svg xmlns="http://www.w3.org/2000/svg" height="208" width="300"><path d="M14.353 0h271.29a14.322 14.322 0 0 1 14.353 14.353v179.29a14.322 14.322 0 0 1-14.353 14.353H14.353c-7.949 0-14.35-6.4-14.35-14.4V14.306A14.32 14.32 0 0 1 14.356-.044z" fill="#b9dded"/><path fill="#0079be" d="M209.419 104.416c0-28.138-23.487-47.587-49.221-47.579h-22.145c-26.04-.009-47.475 19.447-47.475 47.58 0 25.736 21.435 46.882 47.475 46.758h22.145c25.732.123 49.22-21.028 49.22-46.759z"/><path fill="#fff" d="M138.192 60.823c-23.795.007-43.076 19.334-43.085 43.186.006 23.849 19.288 43.172 43.085 43.18 23.8-.008 43.087-19.33 43.09-43.18-.003-23.851-19.29-43.177-43.09-43.186z"/><path fill="#0079be" d="M110.96 103.893c.023-11.656 7.288-21.595 17.532-25.545v51.083c-10.244-3.947-17.51-13.881-17.532-25.538zm37.079 25.551V78.35c10.248 3.94 17.524 13.885 17.543 25.546-.019 11.664-7.295 21.602-17.543 25.55z"/></svg>