<svg xmlns="http://www.w3.org/2000/svg" height="208" width="300"><path d="M14.353 0h271.29a14.322 14.322 0 0 1 14.353 14.353v179.29a14.322 14.322 0 0 1-14.353 14.353H14.353c-7.949 0-14.35-6.4-14.35-14.4V14.306A14.32 14.32 0 0 1 14.356-.044z" fill="#f1efeb"/><g transform="translate(2.321 -844.36)"><circle cy="937" cx="113.93" r="53.214" fill="red"/><circle cy="940.22" cx="181.43" r="53.214" fill="#ff9f00"/><path d="M148.67 896.65a53.212 53.212 0 0 0-20.746 42.121c.01 15.353 6.343 30.663 17.805 40.843 0 0 .472-.3.736-.51a53.213 53.213 0 0 0 20.744-42.12 53.214 53.214 0 0 0-18.54-40.334z" fill="#ff5e00"/><path d="m203.01 1012.8.055-4.62.284-.606c.31-.66.81-1.221 1.35-1.512.387-.208 1.98-.264 2.78-.098l.455.094.398-1.195c.219-.657.398-1.25.398-1.317 0-.21-1.25-.402-2.294-.352-.85.04-1.087.099-1.72.419a4.524 4.524 0 0 0-1.22.914l-.486.54v-1.68l-1.403.031-1.402.031-.029 6.876c-.015 3.78-.005 6.938.026 7.016.04.106.385.133 1.403.11l1.35-.032.055-4.62zm-42.131 0 .055-4.623.368-.746c.39-.794.906-1.27 1.635-1.511.378-.125 1.735-.087 2.522.07l.345.069.398-1.193c.218-.657.397-1.249.397-1.316 0-.21-1.25-.402-2.294-.353-.85.041-1.087.1-1.72.42a4.547 4.547 0 0 0-1.215.908l-.481.536-.033-.804-.032-.804-1.403-.031-1.402-.031v6.97c0 3.834.034 7.004.077 7.047.042.042.673.063 1.402.046l1.326-.031.055-4.623zm-86.903-.01.055-4.628.331-.647c.57-1.113 1.636-1.702 3.08-1.702 1.758 0 2.868 1.002 3.132 2.829.06.41.109 2.565.11 4.789l.002 4.042h2.74l.032-4.655.033-4.656.331-.647c.572-1.117 1.635-1.702 3.095-1.702.99 0 1.792.327 2.346.958.794.9.813 1.042.858 6.165l.039 4.537h3.086l-.045-4.977c-.043-4.821-.052-5.002-.295-5.748-.314-.964-.569-1.4-1.209-2.069-.989-1.034-2.224-1.502-3.975-1.505-1.74 0-3.015.501-4.198 1.66l-.742.724-.305-.442c-.168-.243-.592-.653-.94-.911-.922-.68-1.69-.939-2.979-1.006-1.778-.093-2.888.274-3.995 1.321l-.587.555v-1.682h-2.75v14.087l1.348-.03 1.347-.033.055-4.628zm47.888 4.53c1.59-.442 2.703-1.277 3.288-2.464.328-.666.36-.825.36-1.726-.003-.835-.047-1.088-.287-1.597-.703-1.496-2.22-2.267-5.086-2.585-2.378-.264-3.261-.681-3.261-1.54 0-1.823 3.09-2.286 6.288-.942.436.183.804.321.818.307.136-.14 1.364-2.092 1.364-2.17 0-.174-1.547-.852-2.53-1.109-1.264-.33-3.773-.416-4.931-.17-2.612.553-4.047 2.252-3.833 4.536.212 2.271 1.775 3.385 5.38 3.833 1.94.24 2.882.631 3.214 1.331.174.365.173.41-.016.794-.457.93-1.536 1.287-3.664 1.212-1.405-.051-2.562-.368-3.55-.975-.288-.177-.566-.322-.617-.322-.052 0-.408.476-.792 1.058-.81 1.228-.855 1.093.614 1.803a10.32 10.32 0 0 0 2.86.885c.883.144 3.65.044 4.381-.16zm93.852-2.413c-1.75-.577-2.81-2.267-2.802-4.47.002-.456.053-1.05.115-1.32.292-1.266 1.207-2.413 2.345-2.939.609-.28.786-.31 1.882-.31 1.17 0 1.234.013 1.905.376 1.293.701 1.993 1.782 2.248 3.468.321 2.126-.722 4.275-2.448 5.04-.632.281-2.58.374-3.245.155zm2.753 2.616c.948-.247 1.55-.576 2.273-1.244l.64-.59v1.784h2.749v-19.58h-2.75v7.284l-.639-.59c-1.077-.994-2.23-1.414-3.877-1.414-1.912 0-3.488.634-4.782 1.924-2.406 2.4-2.828 6.489-.977 9.478.864 1.396 2.36 2.512 3.955 2.95.761.208 2.604.207 3.408 0zm-41.475.01c.818-.172 2.418-.898 2.725-1.238.175-.192.147-.26-.525-1.264l-.71-1.06-.634.382c-3.075 1.852-6.484.675-7.231-2.495-1.06-4.493 3.202-7.432 7.244-4.998l.622.374.716-1.066.716-1.066-.361-.308c-1.023-.874-2.574-1.306-4.707-1.314-2.459-.01-3.761.466-5.174 1.888-1.31 1.318-1.976 2.99-1.976 4.967 0 3.791 2.004 6.44 5.445 7.2.892.196 2.906.195 3.85 0zm-32.829-8.662c.337-1.173 1.118-2.172 2.107-2.692.523-.276.69-.307 1.681-.307 1.268 0 1.908.221 2.604.9.429.417.9 1.361 1.019 2.043l.072.412h-7.585l.102-.356zm6.19 8.669c.453-.087 1.19-.31 1.636-.496.891-.371 2.067-1.066 2.067-1.222 0-.101-1.31-1.975-1.38-1.975-.021 0-.326.174-.677.387-.753.457-2.024.88-2.948.981-1.21.133-2.575-.302-3.46-1.1-.5-.453-1.041-1.411-1.163-2.062l-.076-.406h10.396l-.063-1.347c-.113-2.415-.741-4.056-2.055-5.364-.85-.847-1.548-1.245-2.708-1.541-1.611-.412-3.523-.22-5.061.507-.891.421-2.125 1.628-2.607 2.55-.716 1.367-.904 2.188-.899 3.93.005 1.721.148 2.442.72 3.615.854 1.752 2.594 3.115 4.501 3.525.952.204 2.756.213 3.776.018zm-13.302-.01c.745-.158 2.155-.74 2.155-.89 0-.077-.776-2.277-.821-2.33-.014-.016-.312.098-.663.254-1.166.515-2.737.5-3.371-.034-.726-.611-.75-.768-.753-4.894l-.002-3.712h5.06v-2.31h-5.06v-4.29h-2.745l-.03 2.117-.03 2.118-1.458.03-1.457.032v2.407l1.457.031 1.458.031.06 4.235c.05 3.548.088 4.31.238 4.69.595 1.516 1.245 2.134 2.645 2.51.758.205 2.365.207 3.317.01zm50.54-2.622c-1.157-.433-1.796-1.017-2.31-2.11-1.211-2.58-.324-5.557 1.977-6.636.557-.262.754-.293 1.834-.293 1.1 0 1.267.028 1.83.304 2.228 1.095 3.079 4.27 1.812 6.768-.333.658-1.225 1.5-1.908 1.801-.672.297-2.619.397-3.236.166zm2.491 2.663c.907-.157 1.93-.683 2.586-1.328l.55-.54v1.771h2.749v-14.08h-2.75v1.792l-.586-.555a4.986 4.986 0 0 0-2.48-1.299c-3.427-.726-6.737 1.132-7.88 4.425-.525 1.512-.567 3.557-.104 5.097.426 1.42 1.407 2.825 2.57 3.678.735.54 2.055 1.042 3.005 1.144.864.093 1.315.073 2.34-.105zm-88.365-2.725c-1.03-.356-1.881-1.227-2.345-2.4-.214-.541-.253-.844-.256-2.012-.003-1.188.031-1.461.252-2.011.358-.891 1.252-1.829 2.13-2.235.625-.288.804-.319 1.85-.319 1.083 0 1.203.023 1.885.359 1.24.61 2.042 1.791 2.295 3.381.376 2.36-.724 4.477-2.714 5.222-.787.294-2.267.302-3.097.015zm2.32 2.798c1.099-.196 2.128-.68 2.82-1.328l.548-.512.032.808.033.807 1.403.031 1.404.031-.028-7.016-.029-7.016h-2.75l-.055.806-.055.806-.327-.343c-.86-.9-2.136-1.421-3.688-1.507-4.286-.238-7.526 3.222-7.223 7.713.13 1.935.73 3.428 1.869 4.65 1.17 1.254 2.473 1.924 4.117 2.116 1.046.121.985.123 1.929-.045z"/></g></svg>