<svg xmlns="http://www.w3.org/2000/svg" height="208" width="300"><defs><linearGradient id="a" y2="921.8" gradientUnits="userSpaceOnUse" x2="136.05" y1="981.57" x1="175.28"><stop stop-color="#333" offset="0"/><stop stop-color="#333" offset=".352"/><stop stop-color="#4d4d4d" offset=".52"/><stop stop-color="#4d4d4d" offset="1"/></linearGradient></defs><path d="M14.353 844.36h271.29a14.322 14.322 0 0 1 14.353 14.353v179.29a14.322 14.322 0 0 1-14.353 14.353H14.353c-7.949 0-14.35-6.4-14.35-14.4v-179.29a14.32 14.32 0 0 1 14.353-14.35z" fill="url(#a)" transform="translate(0 -844.36)"/><path fill="#fff100" d="M63.803 82.251c2.602-.88 5.395-1.34 8.303-1.34 12.704 0 23.303 9.031 25.714 21.008l17.985-3.673c-4.133-20.357-22.117-35.701-43.699-35.701-4.936 0-9.681.803-14.12 2.296l5.817 17.41z"/><path fill="#00a3df" d="m42.566 140.567 12.168-13.775c-5.434-4.822-8.84-11.824-8.84-19.669a26.089 26.089 0 0 1 8.84-19.63L42.566 73.756c-9.222 8.189-15.039 20.09-15.039 33.406 0 13.278 5.817 25.216 15.039 33.405z"/><path fill="#ee4023" d="M97.82 112.404c-2.449 11.977-13.01 20.97-25.714 20.97-2.908 0-5.701-.46-8.342-1.34l-5.816 17.41a44.458 44.458 0 0 0 14.158 2.296c21.582 0 39.566-15.306 43.699-35.663l-17.985-3.673z"/><path fill="#fff" d="M175.728 124.725c-2.985 2.909-7.002 4.669-11.442 4.592a15.56 15.56 0 0 1-8.265-2.487l-5.97 9.49c4.095 2.563 8.878 4.094 14.083 4.17 7.538.115 14.425-2.87 19.438-7.73l-7.844-8.035zm-10.79-38.686c-15-.23-27.398 11.786-27.628 26.786-.077 5.625 1.53 10.905 4.4 15.268l49.285-21.084c-2.755-11.824-13.316-20.74-26.058-20.97m-16.34 28.928a15.575 15.575 0 0 1-.114-1.913c.153-8.84 7.423-15.918 16.262-15.765a15.842 15.842 0 0 1 11.977 5.701l-28.125 11.977zm57.895-41.173v52.538l9.108 3.788-4.324 10.37-9.031-3.75c-2.028-.88-3.406-2.22-4.439-3.75-.995-1.53-1.76-3.674-1.76-6.505v-52.69h10.446zm32.87 24.298a15.956 15.956 0 0 1 5.09-.803c7.767 0 14.196 5.51 15.689 12.819l10.981-2.258c-2.525-12.436-13.507-21.773-26.67-21.773-3.023 0-5.931.498-8.61 1.378l3.52 10.637zm-12.972 35.549 7.424-8.38c-3.33-2.947-5.396-7.232-5.396-12.016s2.105-9.068 5.396-11.977l-7.424-8.38c-5.624 4.975-9.183 12.283-9.183 20.396s3.559 15.382 9.183 20.357zm33.75-17.143c-1.492 7.309-7.959 12.818-15.688 12.818-1.76 0-3.482-.306-5.09-.841l-3.558 10.638a26.965 26.965 0 0 0 8.648 1.415c13.163 0 24.145-9.336 26.67-21.772l-10.981-2.258z"/></svg>