<svg xmlns="http://www.w3.org/2000/svg" height="208" width="300"><path d="M14.353 0h271.29a14.322 14.322 0 0 1 14.353 14.353v179.29a14.322 14.322 0 0 1-14.353 14.353H14.353c-7.949 0-14.35-6.4-14.35-14.4V14.306A14.32 14.32 0 0 1 14.356-.044z" fill="#d10b15"/><path d="M75.912 86.22c1.8-.704 2.79-2.407 2.79-4.8 0-1.518-.268-2.172-1.118-2.728-.435-.285-.712-.335-1.855-.335-1.128 0-1.456.058-2.044.359-1.607.822-2.377 2.212-2.5 4.512-.07 1.32-.047 1.492.272 2.036.702 1.2 2.723 1.633 4.455.956zm154.31 36.921c.05-.98.237-2.685.416-3.788l.906-5.575c1.366-8.401 2.243-11.296 4.221-13.923.872-1.158 2.157-2.179 3.761-2.987.768-.387.81-.392 2.897-.294 1.164.054 2.377.189 2.695.3.715.249.982.077.982-.63 0-.274.133-1.184.296-2.025.163-.84.297-1.639.297-1.775 0-.177-.327-.357-1.15-.631-2.235-.745-4.971-.416-7.093.851-1 .598-2.762 2.323-3.653 3.579-.4.564-.729.924-.729.8 0-.125.167-1.114.372-2.198.204-1.083.371-2.163.371-2.4v-.428l-2.922.04-2.922.04-.49 3.194a550.813 550.813 0 0 1-4.505 25.466c-.41 2.037-.747 3.827-.747 3.976 0 .256.195.269 3.454.231l3.453-.04.09-1.783zm-80.075 1.671c.02-2.32 2.058-14.733 3.14-19.124 1.051-4.263 3.12-7.198 6.083-8.631 1.17-.566 1.23-.578 2.855-.578 1.212 0 1.94.08 2.693.295 1.12.32 1.26.271 1.27-.444.005-.204.165-1.173.359-2.154.193-.98.323-1.83.287-1.889-.1-.166-2.27-.814-3.098-.925-1.61-.216-4.403.7-6.015 1.975-.988.78-1.531 1.367-2.686 2.895-.483.64-.879 1.108-.879 1.04s.2-1.228.443-2.576.445-2.502.446-2.565c0-.063-1.351-.096-3.006-.074l-3.008.04-.112 1.017c-.405 3.671-2.787 17.458-4.574 26.475-.568 2.866-1.032 5.255-1.032 5.31 0 .054 1.537.099 3.416.099 2.633 0 3.417-.043 3.418-.186zm-79.152-.334c.057-.245.179-1.114.27-1.931.438-3.941 3.993-23.908 5.382-30.232.037-.168-.113-.217-.658-.212-.388 0-1.93.02-3.426.038l-2.72.03-.331 2.266c-.68 4.653-1.988 12.52-2.855 17.179-1.069 5.745-2.457 12.764-2.596 13.127-.094.244.115.258 3.365.22l3.465-.04.104-.446zm-42.055.405c0-.184 2.77-16.73 3.282-19.607.258-1.448.526-2.784.595-2.968l.126-.334h10.302c5.666 0 10.338.035 10.381.08.044.043.02.394-.053.779-.34 1.8-3.272 17.571-3.608 19.403-.208 1.137-.379 2.223-.379 2.414v.347h7.719l.076-.334c.043-.184.272-1.605.51-3.157.537-3.491 2.968-17.863 3.67-21.686 2.892-15.778 3.49-18.994 3.684-19.827.123-.53.172-1.015.108-1.08-.064-.063-1.816-.098-3.894-.076l-3.777.04-.19 1.04c-.592 3.245-2.147 12.415-2.495 14.705-.222 1.47-.423 2.695-.445 2.723-.021.027-2.62.107-5.773.178-5.43.123-14.851-.018-15.057-.224-.103-.103.046-1.006 1.133-6.836 1.026-5.508 2.106-11.431 2.106-11.556 0-.058-1.706-.104-3.792-.104h-3.79l-.135.354c-.074.194-.81 4.589-1.636 9.766-2.172 13.614-2.677 16.454-5.358 30.133-.569 2.9-1.034 5.423-1.034 5.607v.334h3.862c2.124 0 3.862-.051 3.862-.114zm226-3.84c-1.088-.223-2.364-.804-2.979-1.355-.655-.588-1.4-1.988-1.631-3.065-.27-1.255-.258-5.007.021-7.087.199-1.476.77-3.81 1.29-5.267.088-.245.553-1.214 1.033-2.154 1.597-3.125 3.485-4.951 5.99-5.79 1.286-.43 1.437-.448 3.936-.446 2.519 0 2.654.018 4.369.515.973.282 1.824.566 1.89.633.107.107-1.437 8.966-2.245 12.887-1.136 5.506-2.199 7.74-4.49 9.444-1.98 1.471-4.895 2.155-7.184 1.686zm3.575 4.253c2.68-.616 4.535-1.835 6.19-4.067.476-.641.865-1.06.865-.93s-.093.888-.208 1.684c-.114.796-.25 1.798-.302 2.227l-.094.78h6.249v-.86c0-.894.811-7.882 1.349-11.617.62-4.314 3.943-22.768 5.49-30.488.405-2.023.736-3.778.736-3.9 0-.19-.484-.22-3.382-.22h-3.381l-.252 1.893c-.408 3.072-1.937 12.429-2.053 12.564-.06.068-.867-.075-1.795-.318-2.234-.586-5.111-.83-7.334-.62-6.843.642-11.603 3.96-14.557 10.147-1.674 3.505-2.597 6.843-2.905 10.499-.332 3.953.281 7.617 1.6 9.561 1.437 2.118 3.798 3.428 7.112 3.947 1.445.226 5.141.07 6.671-.282zm-57.558-4.255c-1.606-.486-2.293-.935-2.982-1.95l-.657-.969-.08-1.653c-.074-1.547-.052-1.735.351-2.916.237-.695.585-1.564.774-1.931.508-.99 2.046-2.41 3.262-3.01 1.783-.88 2.684-1 7.436-1 2.534 0 4.242.056 4.295.142.139.225-.626 3.706-1.2 5.466-.82 2.507-1.674 4.112-2.765 5.193-1.187 1.175-2.271 1.825-3.844 2.303-1.543.47-3.625.617-4.59.325zm1.782 4.55c3.004-.324 5.21-1.372 7.364-3.497.745-.736 1.503-1.538 1.683-1.783l.329-.446-.082.817c-.045.45-.126 1.603-.18 2.563l-.097 1.745h5.798l.092-.557c.05-.306.093-1.225.094-2.042.003-2.157.92-8.294 2.673-17.895.669-3.667.745-4.297.745-6.206 0-2.053-.015-2.153-.433-2.974-1.19-2.337-3.785-3.496-8.676-3.878-2.175-.17-4.92-.055-8.618.362-1.05.118-2.603.215-3.45.215h-1.544l-.093.409c-.052.224-.32 1.324-.597 2.443-.584 2.361-.616 2.699-.244 2.583.143-.044.962-.245 1.82-.446 4.56-1.07 8.837-1.44 11.328-.982 1.882.346 3.042.95 3.653 1.902.425.662.466.832.46 1.902a15.135 15.135 0 0 1-.266 2.438l-.26 1.262-5.786.078-5.787.077-1.58.475c-.869.26-2.08.673-2.692.916-4.072 1.617-6.808 4.986-7.55 9.294-.64 3.72-.108 6.486 1.674 8.704.88 1.096 3.19 2.149 5.618 2.56.706.119 3.346.097 4.604-.039zm-23.685-.088c2.16-.28 4.15-.675 5.653-1.121 1.295-.385 1.247-.314 1.684-2.48.463-2.291.54-3.069.292-2.959-2.082.92-3.383 1.338-5.445 1.745-2.147.423-2.49.453-4.195.363-3.194-.17-4.781-1.015-5.95-3.17-2.32-4.276-.445-14.941 3.378-19.226 1.35-1.513 2.777-2.196 5.617-2.689 2.235-.388 7.181.174 9.59 1.09.444.168.848.306.897.306.167 0 .94-5.194.793-5.336-.16-.155-2.4-.381-6.06-.611-2.99-.188-5.807-.01-8.488.538-2.532.518-4.6 1.551-6.516 3.257-1.65 1.47-2.209 2.127-3.127 3.682-1.186 2.009-1.663 3.082-2.442 5.49-1.147 3.544-1.36 4.742-1.46 8.218-.103 3.524.058 4.935.764 6.684.898 2.228 2.583 4.205 4.324 5.074.956.477 2.792 1.01 4.173 1.212 1.439.21 4.632.177 6.518-.067zm-58.73-22.182c-.161-.103-.092-.401.354-1.52.86-2.16 1.159-2.656 2.25-3.725.699-.687 1.312-1.128 1.979-1.425 1.492-.665 1.875-.756 3.787-.903 3.94-.303 6.22.574 7.157 2.752.275.64.348 2.682.147 4.098l-.12.854H128.2c-4.222 0-7.766-.059-7.877-.13zm9.59 22.12c2.53-.29 7.006-1.103 7.507-1.365.147-.077.263-.311.266-.54.004-.221.2-1.339.435-2.482.244-1.187.372-2.137.298-2.213-.075-.078-.455.008-.917.207-1.553.67-3.343 1.214-5.163 1.57-1.579.308-2.282.361-4.787.361-2.729 0-3.003-.024-3.873-.352-2.8-1.054-3.974-2.267-4.698-4.856-.246-.883-.313-1.535-.31-3.045.002-1.83.402-5.125.652-5.374.061-.062 5.082-.134 11.156-.161l11.044-.05.232-1.02c.377-1.657.826-4.98.826-6.112 0-4.161-2.37-7.1-6.512-8.075-3.18-.75-5.895-.784-9.53-.124-2.645.48-4.557 1.241-6.61 2.631-1.192.808-2.982 2.624-3.758 3.813-1.607 2.46-2.956 5.96-3.761 9.761-.407 1.921-.474 2.569-.536 5.18-.067 2.884-.056 3.033.327 4.441.641 2.352 1.13 3.236 2.592 4.69 1.92 1.912 3.938 2.79 7.449 3.245 1.75.227 5.033.17 7.67-.13zM89.9 121.2c-1.156-.246-2.5-.923-3.117-1.569-.538-.563-.972-1.498-1.321-2.843-.353-1.358-.218-2.514 1.22-10.502 1.454-8.076 1.156-7.292 3.337-8.755 1.592-1.068 2.948-1.518 4.961-1.648 2.529-.164 4.748.48 6.065 1.76.8.777 1.102 1.29 1.59 2.703.31.896.331 1.193.305 4.158-.028 3.083-.046 3.265-.537 5.273-.719 2.943-1.262 4.45-2.216 6.15-1.08 1.924-1.79 2.806-2.988 3.713-1.818 1.376-4.982 2.052-7.299 1.56zm-8.736 18.363c.049-.08.155-.732.236-1.449.08-.717.517-3.643.969-6.502.452-2.86.981-6.26 1.176-7.556.195-1.296.384-2.386.42-2.422.036-.036.27.289.52.722.707 1.232 1.998 2.385 3.188 2.85 2.222.868 5.57.903 8.649.09 3.843-1.015 6.283-2.688 8.854-6.073 2.805-3.692 5.275-12.202 4.953-17.06-.135-2.028-.649-4.174-1.317-5.498-.802-1.589-2.356-3.167-3.869-3.927-3.845-1.934-9.347-1.822-13.454.272-.857.438-1.96 1.098-2.45 1.467-.49.37-.908.62-.93.556-.02-.064.087-.717.241-1.45.154-.734.25-1.384.215-1.445-.102-.178-5.658-.136-5.769.044-.053.085-.554 2.976-1.115 6.424-1.97 12.104-5.204 30.2-6.876 38.46-.277 1.367-.468 2.52-.426 2.563.147.146 6.693.082 6.785-.067z" fill="#fff"/></svg>